<svg xmlns="http://www.w3.org/2000/svg" version="1.1" xmlns:xlink="http://www.w3.org/1999/xlink" xmlns:svgjs="http://svgjs.dev/svgjs" width="2000" height="525" viewBox="0 0 2000 525"><g transform="matrix(1,0,0,1,-1.2121212121212466,0.8152617128988595)"><svg viewBox="0 0 396 104" data-background-color="#ffffff" preserveAspectRatio="xMidYMid meet" height="525" width="2000" xmlns="http://www.w3.org/2000/svg" xmlns:xlink="http://www.w3.org/1999/xlink"><g id="tight-bounds" transform="matrix(1,0,0,1,0.2400000000000091,-0.16149946312663133)"><svg viewBox="0 0 395.52 104.32299892625325" height="104.32299892625325" width="395.52"><g><svg viewBox="0 0 629.9917100934641 166.16763879356014" height="104.32299892625325" width="395.52"><g><rect width="5.846065851358008" height="166.16763879356014" x="410.8238373072199" y="0" fill="#000000" opacity="1" stroke-width="0" stroke="transparent" fill-opacity="1" class="rect-qz-0" data-fill-palette-color="primary" rx="1%" id="qz-0" data-palette-color="#61777f"></rect></g><g transform="matrix(1,0,0,1,0,13.847303232796676)"><svg viewBox="0 0 395.52 138.4730323279668" height="138.4730323279668" width="395.52"><g id="textblocktransform"><svg viewBox="0 0 395.52 138.4730323279668" height="138.4730323279668" width="395.52" id="textblock"><g><svg viewBox="0 0 395.52 64.82589211618257" height="64.82589211618257" width="395.52"><g transform="matrix(1,0,0,1,0,0)"><svg width="395.52" viewBox="2.05 -39 240.98 39.5" height="64.82589211618257" data-palette-color="#61777f"><path d="M16.95-33.6L12.25-32.55 12.25-3.45 16.95-2.4 16.95 0 2.05 0 2.05-2.4 6.75-3.45 6.75-32.55 2.05-33.6 2.05-36 16.95-36 16.95-33.6ZM20.65-2.3L24.5-3.25 24.5-23.75 20.65-24.7 20.65-27 28.35-27 29.45-22 29.65-22Q31.15-24.55 33.7-26.03 36.25-27.5 39.15-27.5L39.15-27.5Q43.3-27.5 45.3-24.8L45.3-24.8Q46.3-23.4 46.72-20.88 47.15-18.35 47.15-14.05L47.15-14.05 47.15-3.25 51-2.3 51 0 38.45 0 38.45-2.3 41.8-3.25 41.8-13.9Q41.8-17.05 41.62-18.68 41.45-20.3 41-21.25L41-21.25Q40.45-22.5 39.37-23.08 38.3-23.65 36.85-23.65L36.85-23.65Q34.1-23.65 32.1-21.9L32.1-21.9Q30.05-20 29.85-16.1L29.85-16.1 29.85-3.25 33.2-2.3 33.2 0 20.65 0 20.65-2.3ZM70.2 0L70.2-2.3 73.15-3.25 65.8-13.1 62.35-10.2 62.35-3.25 66.2-2.3 66.2 0 53.15 0 53.15-2.3 57-3.25 57-35.75 53.15-36.7 53.15-39 62.35-39 62.35-13.05 72.3-23.75 69.2-24.7 69.2-27 80.45-27 80.45-24.7 76.55-23.75 69.25-16.25 79-3.15 81.65-2.3 81.65 0 70.2 0ZM83.69-2.3L87.54-3.25 87.54-23.75 83.69-24.7 83.69-27 91.39-27 92.49-22 92.69-22Q94.14-24.5 96.57-26 98.99-27.5 101.74-27.5L101.74-27.5Q103.79-27.5 105.39-26.73 106.99-25.95 107.74-24.8L107.74-24.8Q108.54-23.55 109.04-21.5L109.04-21.5Q110.64-24.3 113.19-25.9 115.74-27.5 118.64-27.5L118.64-27.5Q120.64-27.5 122.24-26.73 123.84-25.95 124.69-24.6L124.69-24.6Q125.29-23.65 125.64-22.15 125.99-20.65 126.14-18.28 126.29-15.9 126.29-12.25L126.29-12.25 126.29-3.25 130.14-2.3 130.14 0 117.59 0 117.59-2.3 120.94-3.25 120.94-13.9Q120.94-17.15 120.77-18.75 120.59-20.35 120.14-21.25L120.14-21.25Q119.59-22.45 118.59-23.03 117.59-23.6 116.34-23.6L116.34-23.6Q115.09-23.6 113.94-23.15 112.79-22.7 111.84-21.85L111.84-21.85Q110.74-20.85 110.22-19.5 109.69-18.15 109.59-16.1L109.59-16.1 109.59-3.25 112.94-2.3 112.94 0 100.89 0 100.89-2.3 104.24-3.25 104.24-13.9Q104.24-17.15 104.07-18.75 103.89-20.35 103.44-21.25L103.44-21.25Q102.89-22.45 101.89-23.03 100.89-23.6 99.64-23.6L99.64-23.6Q98.39-23.6 97.24-23.15 96.09-22.7 95.14-21.85L95.14-21.85Q94.04-20.85 93.52-19.5 92.99-18.15 92.89-16.1L92.89-16.1 92.89-3.25 96.24-2.3 96.24 0 83.69 0 83.69-2.3ZM158.24-13.65L158.24-13.65Q158.24-10.45 157.29-7.55 156.34-4.65 154.59-2.75L154.59-2.75Q153.04-1.05 150.79-0.28 148.54 0.5 145.64 0.5L145.64 0.5Q142.79 0.5 140.56-0.28 138.34-1.05 136.79-2.7L136.79-2.7Q135.09-4.55 134.16-7.3 133.24-10.05 133.24-13.25L133.24-13.25Q133.24-16.5 134.19-19.43 135.14-22.35 136.89-24.25L136.89-24.25Q138.54-25.95 140.72-26.73 142.89-27.5 145.79-27.5L145.79-27.5Q148.64-27.5 150.89-26.73 153.14-25.95 154.69-24.3L154.69-24.3Q156.44-22.45 157.34-19.65 158.24-16.85 158.24-13.65ZM139.64-10.75L139.64-10.75Q139.84-8.4 140.54-6.75 141.24-5.1 142.34-4.1L142.34-4.1Q143.44-3.3 144.62-3 145.79-2.7 147.24-3L147.24-3Q150.09-3.85 151.24-7.45L151.24-7.45Q151.84-9.4 151.99-11.65 152.14-13.9 151.84-16.3L151.84-16.3Q151.64-18.6 150.94-20.28 150.24-21.95 149.14-22.9L149.14-22.9Q148.09-23.75 146.89-24.03 145.69-24.3 144.19-24L144.19-24Q141.34-23.15 140.29-19.55L140.29-19.55Q139.09-15.65 139.64-10.75ZM161.74-27L170.44-27 170.44-13.1Q170.44-9.9 170.61-8.28 170.79-6.65 171.19-5.75L171.19-5.75Q171.69-4.55 172.74-3.93 173.79-3.3 175.04-3.3L175.04-3.3Q176.39-3.3 177.59-3.8 178.79-4.3 179.74-5.15L179.74-5.15Q181.79-7 181.99-10.9L181.99-10.9 181.99-23.75 177.64-24.7 177.64-27 187.34-27 187.34-3.25 191.19-2.3 191.19 0 182.94 0.5 182.39-5 182.19-5Q180.74-2.45 178.24-0.98 175.74 0.5 172.89 0.5L172.89 0.5Q170.99 0.5 169.41-0.23 167.84-0.95 166.94-2.2L166.94-2.2Q165.99-3.6 165.54-6.15 165.09-8.7 165.09-12.95L165.09-12.95 165.09-23.75 161.74-24.7 161.74-27ZM204.54-2.05L204.54-2.05Q207.24-2.05 209.01-3.13 210.79-4.2 210.79-6.15L210.79-6.15Q210.79-7.7 209.69-8.68 208.59-9.65 206.96-10.25 205.34-10.85 203.69-11.35L203.69-11.35Q201.64-12 199.74-12.9 197.84-13.8 196.64-15.4 195.44-17 195.44-19.55L195.44-19.55Q195.44-23.15 198.06-25.33 200.69-27.5 205.39-27.5L205.39-27.5Q209.59-27.5 212.06-25.75 214.54-24 214.54-21.05L214.54-21.05Q214.54-19.45 213.76-18.53 212.99-17.6 211.59-17.6L211.59-17.6Q210.29-17.6 209.49-18.32 208.69-19.05 208.69-20.1L208.69-20.1Q208.69-21.05 209.19-21.83 209.69-22.6 210.49-22.95L210.49-22.95Q209.74-23.95 208.56-24.45 207.39-24.95 205.59-24.95L205.59-24.95Q202.79-24.95 201.41-23.9 200.04-22.85 200.04-20.9L200.04-20.9Q200.04-19.45 200.71-18.57 201.39-17.7 202.69-17.13 203.99-16.55 205.84-15.95L205.84-15.95Q207.64-15.4 209.36-14.78 211.09-14.15 212.51-13.23 213.94-12.3 214.79-10.95 215.64-9.6 215.64-7.6L215.64-7.6Q215.64-5.05 214.16-3.23 212.69-1.4 210.14-0.45 207.59 0.5 204.34 0.5L204.34 0.5Q199.84 0.5 197.14-1.3 194.44-3.1 194.44-6.1L194.44-6.1Q194.44-7.85 195.29-8.85 196.14-9.85 197.59-9.85L197.59-9.85Q198.79-9.85 199.69-9.15 200.59-8.45 200.59-7.3L200.59-7.3Q200.59-6.35 200.04-5.5 199.49-4.65 198.79-4.25L198.79-4.25Q199.39-3.35 200.89-2.7 202.39-2.05 204.54-2.05ZM242.88-13.05L242.88-13.05 225.43-13.05Q225.43-9.5 226.43-7.15L226.43-7.15Q227.38-5.05 229.06-4.08 230.73-3.1 232.83-3.1L232.83-3.1Q235.13-3.1 237.16-4.08 239.18-5.05 240.73-6.85L240.73-6.85 242.68-5.35Q240.93-2.95 238.28-1.23 235.63 0.5 231.53 0.5L231.53 0.5Q228.03 0.5 225.38-0.98 222.73-2.45 221.33-5.3L221.33-5.3Q220.58-6.85 220.23-8.75 219.88-10.65 219.88-12.8L219.88-12.8Q219.88-19.8 223.11-23.65 226.33-27.5 231.98-27.5L231.98-27.5Q237.23-27.5 240.13-24.33 243.03-21.15 243.03-15.55L243.03-15.55Q243.03-15.05 243.01-14.58 242.98-14.1 242.88-13.05ZM231.78-24.55L231.78-24.55Q226.03-24.55 225.48-15.75L225.48-15.75 237.48-15.75 237.48-17.3Q237.48-20.8 235.98-22.68 234.48-24.55 231.78-24.55Z" opacity="1" transform="matrix(1,0,0,1,0,0)" fill="#000000" class="wordmark-text-0" data-fill-palette-color="primary" id="text-0"></path></svg></g></svg></g><g transform="matrix(1,0,0,1,207.46523425122595,80.1297294234025)"><svg viewBox="0 0 188.05476574877403 58.34330290456431" height="58.34330290456431" width="188.05476574877403"><g transform="matrix(1,0,0,1,0,0)"><svg width="188.05476574877403" viewBox="0.83 -31.4 136.75 42.43999999999998" height="58.34330290456431" data-palette-color="#61777f"><path d="M13.13-21.29L13.13-21.29Q17.82-21.29 20.46-18.14 23.1-14.99 23.1-11.43L23.1-11.43Q23.1-6.74 19.82-3.17 16.55 0.39 12.4 0.39L12.4 0.39Q11.67 0.39 11.11 0.34 10.55 0.29 10.11 0.17 9.67 0.05 9.42-0.05 9.18-0.15 8.79-0.32 8.4-0.49 8.3-0.54L8.3-0.54Q8.11-0.29 8.11 0.1L8.11 0.1 8.11 4.3Q8.11 7.13 8.5 8.64L8.5 8.64Q8.59 8.98 9.77 9.3 10.94 9.62 11.43 9.62L11.43 9.62Q11.57 9.62 11.62 10.23 11.67 10.84 11.57 11.04L11.57 11.04Q6.69 10.79 6.35 10.79L6.35 10.79Q6.05 10.79 1.03 11.04L1.03 11.04Q0.83 10.84 0.83 10.23 0.83 9.62 1.03 9.62L1.03 9.62Q1.61 9.62 2.76 9.3 3.91 8.98 4 8.64L4 8.64Q4.35 7.23 4.35 5.22L4.35 5.22 4.35-14.94Q4.35-16.85 3.66-17.58L3.66-17.58Q3.17-18.16 2.47-18.38 1.76-18.6 1.29-18.6 0.83-18.6 0.83-18.7L0.83-18.7Q0.83-19.87 1.12-19.92L1.12-19.92Q6.3-20.7 7.86-21.19L7.86-21.19Q7.91-21.19 8.01-21.22 8.11-21.24 8.11-21.24L8.11-21.24Q8.25-21.24 8.25-20.97 8.25-20.7 8.2-20.31 8.15-19.92 8.15-19.87L8.15-19.87 8.15-19.58Q8.84-20.07 10.42-20.68 12.01-21.29 13.13-21.29ZM11.57-18.9L11.57-18.9Q10.06-18.9 9.08-18.09 8.11-17.29 8.11-15.77L8.11-15.77 8.11-4.79Q8.11-3.47 9.52-2.56 10.94-1.66 12.6-1.66L12.6-1.66Q15.48-1.66 17.19-4.25 18.9-6.84 18.9-10.06L18.9-10.06Q18.9-14.16 16.72-16.53 14.55-18.9 11.57-18.9ZM39.26-21.34L39.26-21.34Q42.14-21.34 43.06-19.92L43.06-19.92Q43.06-18.21 42.53-17.43 41.99-16.65 41.21-16.65L41.21-16.65Q40.33-16.65 39.6-17.48 38.86-18.31 37.6-18.31L37.6-18.31Q36.08-18.31 34.96-16.89 33.84-15.48 33.84-13.92L33.84-13.92 33.84-6.59Q33.84-3.76 34.23-2.25L34.23-2.25Q34.32-1.9 35.52-1.59 36.72-1.27 37.2-1.27L37.2-1.27Q37.35-1.27 37.4-0.68 37.45-0.1 37.35 0.15L37.35 0.15Q32.47-0.1 32.08-0.1L32.08-0.1Q31.78-0.1 26.76 0.15L26.76 0.15Q26.56-0.05 26.56-0.66 26.56-1.27 26.76-1.27L26.76-1.27Q27.34-1.27 28.49-1.59 29.64-1.9 29.73-2.25L29.73-2.25Q30.08-3.66 30.08-5.66L30.08-5.66 30.08-14.89Q30.08-16.8 29.39-17.53L29.39-17.53Q28.9-18.12 28.2-18.33 27.49-18.55 27.02-18.55 26.56-18.55 26.56-18.65L26.56-18.65Q26.56-19.82 26.85-19.87L26.85-19.87Q32.03-20.65 33.59-21.14L33.59-21.14Q33.64-21.14 33.74-21.17 33.84-21.19 33.84-21.19L33.84-21.19Q34.03-21.19 34.08-20.78 34.13-20.36 34.08-20.17L34.08-20.17 33.79-17.72Q34.67-19.04 36.2-20.19 37.74-21.34 39.26-21.34ZM48.36-27.22Q47.65-27.93 47.65-28.96 47.65-29.98 48.36-30.69 49.07-31.4 50.09-31.4 51.12-31.4 51.83-30.69 52.53-29.98 52.53-28.96 52.53-27.93 51.83-27.22 51.12-26.51 50.09-26.51 49.07-26.51 48.36-27.22ZM52.34-16.65L52.34-6.59Q52.34-3.76 52.73-2.25L52.73-2.25Q52.83-1.9 54-1.59 55.17-1.27 55.66-1.27L55.66-1.27Q55.81-1.27 55.85-0.68 55.9-0.1 55.81 0.15L55.81 0.15Q50.92-0.1 50.58-0.1 50.24-0.1 45.26 0.15L45.26 0.15Q45.06-0.05 45.06-0.66 45.06-1.27 45.26-1.27L45.26-1.27Q45.84-1.27 46.99-1.59 48.14-1.9 48.24-2.25L48.24-2.25Q48.58-3.66 48.58-5.66L48.58-5.66 48.58-14.89Q48.58-16.8 47.9-17.53L47.9-17.53Q47.41-18.12 46.7-18.33 45.99-18.55 45.53-18.55 45.06-18.55 45.06-18.65L45.06-18.65Q45.06-19.82 45.36-19.87L45.36-19.87Q50.53-20.65 52.09-21.14L52.09-21.14 52.19-21.19Q52.29-21.19 52.34-21.19L52.34-21.19Q52.53-21.19 52.58-20.78 52.63-20.36 52.58-20.17L52.58-20.17Q52.34-18.21 52.34-16.65L52.34-16.65ZM72.36-21.39L72.36-21.39Q75.77-21.39 77.14-18.95 78.51-16.5 78.51-11.04L78.51-11.04 78.51-6.59Q78.51-3.76 78.9-2.25L78.9-2.25Q79-1.9 80.17-1.59 81.34-1.27 81.83-1.27L81.83-1.27Q81.97-1.27 82.02-0.68 82.07-0.1 81.97 0.15L81.97 0.15Q77.09-0.1 76.75-0.1L76.75-0.1Q76.65-0.1 71.62 0.15L71.62 0.15Q71.43-0.05 71.43-0.66 71.43-1.27 71.62-1.27L71.62-1.27Q72.21-1.27 73.26-1.59 74.31-1.9 74.41-2.25L74.41-2.25Q74.75-3.66 74.75-5.66L74.75-5.66 74.75-10.55Q74.75-15.09 73.58-16.75 72.4-18.41 69.77-18.41L69.77-18.41Q68.21-18.41 66.76-17.26 65.32-16.11 65.32-15.19L65.32-15.19 65.32-6.59Q65.32-3.76 65.72-2.25L65.72-2.25Q65.81-1.9 66.98-1.59 68.16-1.27 68.64-1.27L68.64-1.27Q68.79-1.27 68.84-0.68 68.89-0.1 68.79 0.15L68.79 0.15Q63.91-0.1 63.57-0.1L63.57-0.1Q63.27-0.1 58.24 0.15L58.24 0.15Q58.05-0.05 58.05-0.66 58.05-1.27 58.24-1.27L58.24-1.27Q58.83-1.27 59.98-1.59 61.13-1.9 61.22-2.25L61.22-2.25Q61.56-3.66 61.56-5.66L61.56-5.66 61.56-14.89Q61.56-16.8 60.88-17.53L60.88-17.53Q60.39-18.12 59.68-18.33 58.98-18.55 58.51-18.55 58.05-18.55 58.05-18.65L58.05-18.65Q58.05-19.82 58.34-19.87L58.34-19.87Q63.52-20.65 65.08-21.14L65.08-21.14Q65.13-21.14 65.23-21.17 65.32-21.19 65.32-21.19L65.32-21.19Q65.52-21.19 65.57-20.78 65.62-20.36 65.57-20.17L65.57-20.17Q65.37-18.8 65.37-18.21L65.37-18.21Q65.37-18.02 65.47-18.02L65.47-18.02Q65.52-18.02 65.62-18.12L65.62-18.12Q66.74-19.29 68.67-20.34 70.6-21.39 72.36-21.39ZM87.05-5.86L87.05-18.26 84.22-18.26Q83.97-18.26 83.97-19.29L83.97-19.29Q83.97-19.58 84.02-19.63L84.02-19.63Q85.44-20.26 87.1-22.22L87.1-22.22Q87.64-22.85 88.15-23.66 88.66-24.46 89-25.05 89.35-25.63 89.35-25.68L89.35-25.68Q90.81-25.68 90.81-25.44L90.81-25.44 90.81-20.61Q92.08-20.61 94.67-20.58 97.26-20.56 97.4-20.56L97.4-20.56Q97.79-20.56 97.79-20.12L97.79-20.12Q97.79-19.24 97.3-18.26L97.3-18.26 90.81-18.26 90.81-6.3Q90.81-4.35 91.81-3.17 92.81-2 94.42-2L94.42-2Q95.89-2 97.45-2.93L97.45-2.93Q97.6-3.03 97.89-2.51 98.18-2 98.13-1.95L98.13-1.95Q97.4-1.17 95.89-0.42 94.37 0.34 92.76 0.34L92.76 0.34Q90.32 0.34 88.69-1.27 87.05-2.88 87.05-5.86L87.05-5.86ZM109.46-19.48L109.46-19.48Q106.92-19.48 105.58-17.31 104.24-15.14 104.24-13.72L104.24-13.72Q104.24-13.38 104.53-13.38L104.53-13.38 114.05-13.38Q114.29-13.38 114.29-13.87L114.29-13.87Q114.29-15.43 112.98-17.46 111.66-19.48 109.46-19.48ZM109.95-21.29L109.95-21.29Q112.19-21.29 113.9-20.43 115.61-19.58 116.52-18.24 117.42-16.89 117.83-15.5 118.25-14.11 118.25-12.74L118.25-12.74Q118.25-11.77 117.96-11.55 117.66-11.33 116.83-11.33L116.83-11.33 104.53-11.33Q104.14-11.33 104.14-11.08L104.14-11.08Q104.14-8.01 105.99-5.42 107.85-2.83 111.36-2.83L111.36-2.83Q112.39-2.83 113.32-3.03 114.25-3.22 114.9-3.49 115.56-3.76 116.03-4.03 116.49-4.3 116.83-4.54L116.83-4.54 117.18-4.79Q117.47-4.79 117.47-4.15L117.47-4.15Q117.47-3.76 117.18-3.27L117.18-3.27Q116.2-1.9 114.29-0.81 112.39 0.29 110.14 0.29L110.14 0.29Q106.09 0.29 103.19-2.76 100.28-5.81 100.28-10.21L100.28-10.21Q100.28-15.33 103.04-18.31 105.8-21.29 109.95-21.29ZM133.77-21.34L133.77-21.34Q136.65-21.34 137.58-19.92L137.58-19.92Q137.58-18.21 137.05-17.43 136.51-16.65 135.73-16.65L135.73-16.65Q134.85-16.65 134.12-17.48 133.38-18.31 132.11-18.31L132.11-18.31Q130.6-18.31 129.48-16.89 128.35-15.48 128.35-13.92L128.35-13.92 128.35-6.59Q128.35-3.76 128.74-2.25L128.74-2.25Q128.84-1.9 130.04-1.59 131.24-1.27 131.72-1.27L131.72-1.27Q131.87-1.27 131.92-0.68 131.97-0.1 131.87 0.15L131.87 0.15Q126.99-0.1 126.6-0.1L126.6-0.1Q126.3-0.1 121.27 0.15L121.27 0.15Q121.08-0.05 121.08-0.66 121.08-1.27 121.27-1.27L121.27-1.27Q121.86-1.27 123.01-1.59 124.15-1.9 124.25-2.25L124.25-2.25Q124.59-3.66 124.59-5.66L124.59-5.66 124.59-14.89Q124.59-16.8 123.91-17.53L123.91-17.53Q123.42-18.12 122.71-18.33 122.01-18.55 121.54-18.55 121.08-18.55 121.08-18.65L121.08-18.65Q121.08-19.82 121.37-19.87L121.37-19.87Q126.55-20.65 128.11-21.14L128.11-21.14Q128.16-21.14 128.26-21.17 128.35-21.19 128.35-21.19L128.35-21.19Q128.55-21.19 128.6-20.78 128.65-20.36 128.6-20.17L128.6-20.17 128.31-17.72Q129.18-19.04 130.72-20.19 132.26-21.34 133.77-21.34Z" opacity="1" transform="matrix(1,0,0,1,0,0)" fill="#000000" class="slogan-text-1" data-fill-palette-color="secondary" id="text-1"></path></svg></g></svg></g></svg></g></svg></g><g transform="matrix(1,0,0,1,431.9737404657978,4.622229819107531)"><svg viewBox="0 0 198.01796962766628 156.92317915534508" height="156.92317915534508" width="198.01796962766628"><g><svg xmlns="http://www.w3.org/2000/svg" xmlns:xlink="http://www.w3.org/1999/xlink" version="1.1" x="0" y="0" viewBox="1 8.045 98 77.66199999999999" enable-background="new 0 0 100 100" xml:space="preserve" height="156.92317915534508" width="198.01796962766628" class="icon-icon-0" data-fill-palette-color="accent" id="icon-0"><polygon points="76.162,72.245 23.185,72.245 17.814,85.707 81.57,85.707 " fill="#000000" data-fill-palette-color="accent"></polygon><path d="M91.259 25H79v21H20V25H8.777C4.407 25 1 28.799 1 33.168v40.153C1 77.689 4.407 81 8.777 81h6.674l5.51-12h57.423l5.511 12h7.363C95.629 81 99 77.689 99 73.321V33.168C99 28.799 95.629 25 91.259 25zM87.182 35.025c-1.392 0-2.52-1.129-2.52-2.52 0-1.392 1.128-2.52 2.52-2.52 1.391 0 2.52 1.128 2.52 2.52C89.701 33.896 88.572 35.025 87.182 35.025z" fill="#000000" data-fill-palette-color="accent"></path><g fill="#61777f" data-fill-palette-color="accent"><path d="M23.935 8.045v34.422h51.479V8.045H23.935z" fill="#000000" data-fill-palette-color="accent"></path></g></svg></g></svg></g></svg></g><defs></defs></svg><rect width="395.52" height="104.32299892625325" fill="none" stroke="none" visibility="hidden"></rect></g></svg></g></svg>